<svg xmlns="http://www.w3.org/2000/svg" viewBox="0 0 200 50">
    <path d="M40,25c0,8.3-6.7,15-15,15S10,33.3,10,25s6.7-15,15-15S40,16.7,40,25" fill="#000"/>
    <path d="M60,15v20h5V15h10V10H50v5H60z M85,35c5.5,0,10-4.5,10-10s-4.5-10-10-10s-10,4.5-10,10S79.5,35,85,35z M85,20c2.8,0,5,2.2,5,5s-2.2,5-5,5s-5-2.2-5-5S82.2,20,85,20z M105,35h5V10h-5V35z M130,15v20h5V15h10V10h-25v5H130z M155,35c5.5,0,10-4.5,10-10s-4.5-10-10-10s-10,4.5-10,10S149.5,35,155,35z M155,20c2.8,0,5,2.2,5,5s-2.2,5-5,5s-5-2.2-5-5S152.2,20,155,20z M175,35h5V10h-5V35z" fill="#000"/>
</svg> 